Coordinates
version=1
nRows=9
nColumns=24
inDegrees=yes

Units are S.I. units (second, meters, Newtons, ...)
Angles are in degrees.

endheader
time	pelvis_tilt	pelvis_list	pelvis_rotation	pelvis_tx	pelvis_ty	pelvis_tz	hip_flexion_r	hip_adduction_r	hip_rotation_r	knee_angle_r	ankle_angle_r	subtalar_angle_r	mtp_angle_r	hip_flexion_l	hip_adduction_l	hip_rotation_l	knee_angle_l	ankle_angle_l	subtalar_angle_l	mtp_angle_l	lumbar_extension	lumbar_bending	lumbar_rotation
      0.52900000	     -1.20030868	      7.72349329	     -2.22920805	     -0.84876831	      0.98039682	      0.29683021	     25.66040046	     -6.20580681	     -2.30292706	      0.78152377	      0.60186945	     -2.58708941	      8.78861619	    -18.66509110	     13.18196554	      8.58751495	      1.88582498	      8.94013587	    -11.83644711	     -0.94846933	    -11.03471681	      0.55876530	     -9.93889073
      0.53316667	     -1.24867964	      7.61181763	     -2.23131593	     -0.84310993	      0.97952204	      0.29698398	     25.65535900	     -6.02432961	     -1.96303250	      0.71171950	      0.33280735	     -2.75021213	      8.79464500	    -18.75589345	     13.07232438	      8.57221620	      1.43531344	      9.22726522	    -11.68867879	     -0.92472381	    -10.97711705	      0.72749112	     -9.88705504
      0.53733333	     -1.29312704	      7.50119195	     -2.26568605	     -0.83744913	      0.97868228	      0.29720215	     25.67541337	     -5.83087853	     -1.54796798	      0.52439584	      0.01698820	     -3.01561042	      8.81414304	    -18.80694622	     12.97757183	      8.42964426	      0.91220830	      9.55496328	    -11.42017734	     -0.87914075	    -10.91644370	      0.89462058	     -9.83784662
      0.54150000	     -1.34140492	      7.35496726	     -2.28565376	     -0.83176677	      0.97788773	      0.29740808	     25.69833442	     -5.60990592	     -1.14145721	      0.26093563	     -0.33138836	     -3.30987607	      8.84136799	    -18.84573965	     12.84336395	      8.32488493	      0.35906067	      9.87434101	    -11.18297827	     -0.82320502	    -10.86035527	      1.09986926	     -9.78098386
      0.54566667	     -1.40275902	      7.20239083	     -2.31837031	     -0.82605034	      0.97711611	      0.29764404	     25.75031650	     -5.37573548	     -0.69791151	     -0.08824971	     -0.73608500	     -3.69962744	      8.87981346	    -18.84083708	     12.71017682	      8.15902320	     -0.24794233	     10.18926651	    -10.91930207	     -0.74436718	    -10.77451427	      1.32140424	     -9.70631369
      0.54983333	     -1.46178903	      7.02369991	     -2.35209591	     -0.82032684	      0.97638563	      0.29789304	     25.81028853	     -5.11551210	     -0.24975236	     -0.51486977	     -1.17620153	     -4.13113710	      8.92196276	    -18.82744152	     12.55195675	      8.00677967	     -0.87985981	     10.48743486	    -10.68333520	     -0.65534976	    -10.70472838	      1.57007753	     -9.63004182
      0.55400000	     -1.47956356	      6.82363911	     -2.40604499	     -0.81456535	      0.97574370	      0.29819084	     25.83281179	     -4.82815094	      0.21124048	     -0.99942269	     -1.64694110	     -4.60711233	      9.00850787	    -18.82718366	     12.37925122	      7.75808480	     -1.56967095	     10.81658729	    -10.34960653	     -0.47725205	    -10.68655256	      1.83937993	     -9.55204719
      0.55816667	     -1.58245347	      6.63437201	     -2.44115162	     -0.80879257	      0.97503539	      0.29845819	     25.98168308	     -4.55134018	      0.63882708	     -1.59816544	     -2.14970813	     -5.12203867	      9.05229246	    -18.73523837	     12.21654556	      7.63647528	     -2.26045899	     11.01461260	    -10.23491130	     -0.36452758	    -10.54694641	      2.10219747	     -9.45330884
      0.56233333	     -1.64274150	      6.41383638	     -2.49472450	     -0.80299909	      0.97441210	      0.29878173	     26.08155573	     -4.23609997	      1.09824538	     -2.22270244	     -2.69808005	     -5.73200312	      9.10316850	    -18.66231113	     12.02710021	      7.42568732	     -3.00471445	     11.25024150	    -10.01575584	     -0.21438209	    -10.47254833	      2.39755154	     -9.34935541
